<?xml version="1.0" encoding="utf-8"?>
<!-- Generator: Adobe Illustrator 24.0.2, SVG Export Plug-In . SVG Version: 6.00 Build 0)  -->
<svg version="1.1" id="Layer_1" xmlns="http://www.w3.org/2000/svg" xmlns:xlink="http://www.w3.org/1999/xlink" x="0px" y="0px"
	 viewBox="0 0 500 150" style="enable-background:new 0 0 500 150;" xml:space="preserve">
<style type="text/css">
	.st0{fill:#1735E5;}
	.st1{fill:url(#SVGID_1_);}
</style>
<g>
	<path class="st0" d="M179.02,86.9V68.05c0-2.66,0.57-5,1.72-7.01c1.14-2.01,2.65-3.68,4.52-5.01c1.87-1.33,4-2.34,6.41-3.01
		c2.41-0.68,4.87-1.02,7.39-1.02s4.99,0.34,7.39,1.02c2.41,0.68,4.55,1.68,6.45,3.01c1.89,1.33,3.41,3,4.55,5.01
		c1.14,2.01,1.72,4.34,1.72,7.01V86.9c0,2.01-0.33,3.82-0.98,5.43c-0.65,1.61-1.54,3.05-2.66,4.31l3.99,5.04l-5.19,3.92l-4.13-5.04
		c-1.64,0.79-3.41,1.4-5.33,1.82c-1.92,0.42-3.85,0.63-5.82,0.63c-2.52,0-4.99-0.34-7.39-1.02c-2.41-0.68-4.54-1.68-6.41-3.01
		c-1.87-1.33-3.38-3.01-4.52-5.04C179.59,91.91,179.02,89.57,179.02,86.9z M199.06,94.89c2.38,0,4.41-0.21,6.1-0.63l-3.85-4.69
		l5.47-3.92l3.71,4.69c0.42-0.98,0.63-2.15,0.63-3.5V68.19c0-1.4-0.35-2.62-1.05-3.64c-0.7-1.03-1.61-1.87-2.73-2.52
		c-1.12-0.65-2.41-1.13-3.85-1.44c-1.45-0.3-2.92-0.46-4.41-0.46c-1.5,0-2.97,0.16-4.41,0.49c-1.45,0.33-2.73,0.82-3.85,1.47
		c-1.12,0.65-2.02,1.48-2.7,2.49c-0.68,1.01-1.02,2.21-1.02,3.61v18.64c0,1.36,0.34,2.54,1.02,3.54c0.68,1,1.58,1.83,2.7,2.49
		c1.12,0.65,2.39,1.16,3.82,1.51C196.03,94.71,197.52,94.89,199.06,94.89z"/>
	<path class="st0" d="M244.25,103.02c-1.96,0-3.83-0.23-5.61-0.7c-1.78-0.47-3.32-1.21-4.62-2.24c-1.31-1.03-2.35-2.33-3.12-3.92
		c-0.77-1.59-1.16-3.5-1.16-5.75V66.02h7.71v24.52c0.05,1.03,0.3,1.9,0.77,2.63c0.47,0.72,1.06,1.32,1.79,1.79
		c0.72,0.47,1.54,0.82,2.45,1.05c0.91,0.23,1.86,0.35,2.84,0.35c0.93,0,1.86-0.12,2.77-0.35c0.91-0.23,1.74-0.54,2.49-0.91V66.02
		h7.64V100c-2.24,0.94-4.55,1.67-6.94,2.21C248.88,102.75,246.54,103.02,244.25,103.02z"/>
	<path class="st0" d="M268.63,56.91c0-1.45,0.48-2.66,1.44-3.64c0.96-0.98,2.16-1.47,3.61-1.47c1.45,0,2.66,0.49,3.64,1.47
		c0.98,0.98,1.47,2.2,1.47,3.64c0,1.45-0.49,2.66-1.47,3.64c-0.98,0.98-2.2,1.47-3.64,1.47c-1.45,0-2.65-0.49-3.61-1.47
		C269.11,59.58,268.63,58.36,268.63,56.91z M277.46,102.32h-7.92V66.09h7.92V102.32z"/>
	<path class="st0" d="M315.44,94.89v7.43h-25.85l-3.15-4.55l18.99-24.45h-17.17v-7.29h24.8l2.94,4.62l-18.71,24.24H315.44z"/>
	<path class="st0" d="M324.83,67.98c0-2.66,0.55-4.99,1.65-6.97c1.1-1.98,2.55-3.64,4.34-4.97c1.8-1.33,3.84-2.34,6.13-3.01
		c2.29-0.68,4.65-1.02,7.08-1.02c1.82,0,3.62,0.23,5.4,0.7c1.77,0.47,3.47,1.17,5.08,2.1c1.61,0.94,3.09,2.11,4.45,3.54
		c1.35,1.43,2.47,3.1,3.36,5.01l-7.22,3.57c-1.22-2.24-2.85-3.94-4.91-5.08c-2.06-1.14-4.18-1.72-6.38-1.72
		c-1.36,0-2.69,0.16-3.99,0.49c-1.31,0.33-2.48,0.82-3.5,1.47c-1.03,0.65-1.86,1.47-2.49,2.45c-0.63,0.98-0.95,2.13-0.95,3.43v19.06
		c0,1.31,0.32,2.45,0.95,3.43c0.63,0.98,1.46,1.8,2.49,2.45c1.03,0.65,2.2,1.14,3.5,1.47c1.31,0.33,2.64,0.49,3.99,0.49
		c2.24,0,4.39-0.56,6.45-1.68c2.05-1.12,3.67-2.8,4.83-5.04l7.22,3.36c-0.94,1.92-2.08,3.6-3.43,5.04
		c-1.36,1.45-2.84,2.65-4.45,3.61c-1.61,0.96-3.33,1.67-5.15,2.14c-1.82,0.47-3.64,0.7-5.46,0.7c-2.38,0-4.71-0.33-6.97-0.98
		c-2.27-0.65-4.29-1.65-6.06-2.98c-1.78-1.33-3.21-3-4.31-5.01c-1.1-2.01-1.65-4.34-1.65-7.01V67.98z"/>
	<path class="st0" d="M384.88,103.02c-4.53,0-8-1.11-10.4-3.33c-2.41-2.22-3.61-5.27-3.61-9.14V52.71h7.71v37.84
		c0,1.5,0.5,2.75,1.51,3.75c1,1,2.6,1.51,4.8,1.51V103.02z"/>
	<path class="st0" d="M411.78,77.51c0-0.89-0.21-1.67-0.63-2.35c-0.42-0.68-0.98-1.24-1.68-1.68c-0.7-0.44-1.51-0.77-2.42-0.98
		c-0.91-0.21-1.86-0.32-2.84-0.32c-1.45,0-2.85,0.25-4.2,0.74c-1.36,0.49-2.5,1.25-3.43,2.28l-4.34-4.48
		c1.96-2.19,4.03-3.64,6.2-4.34s4.42-1.05,6.76-1.05c1.77,0,3.51,0.25,5.22,0.74c1.7,0.49,3.23,1.23,4.59,2.21
		c1.35,0.98,2.44,2.22,3.26,3.71c0.82,1.5,1.23,3.27,1.23,5.33v23.26c-1.68,0.66-3.73,1.23-6.13,1.72c-2.41,0.49-4.94,0.74-7.6,0.74
		c-1.92,0-3.76-0.17-5.54-0.53c-1.78-0.35-3.34-0.95-4.69-1.79c-1.36-0.84-2.45-1.97-3.29-3.4c-0.84-1.42-1.26-3.21-1.26-5.36
		c0-2.01,0.39-3.74,1.16-5.18c0.77-1.45,1.79-2.65,3.05-3.61c1.26-0.96,2.7-1.67,4.31-2.14c1.61-0.47,3.26-0.7,4.94-0.7
		c1.31,0,2.59,0.12,3.85,0.35c1.26,0.23,2.43,0.58,3.5,1.05V77.51z M405.54,86.48c-2.24,0-3.97,0.5-5.18,1.51
		c-1.22,1-1.82,2.3-1.82,3.89c0,0.84,0.19,1.57,0.56,2.17c0.37,0.61,0.88,1.1,1.51,1.47c0.63,0.38,1.34,0.64,2.14,0.81
		c0.79,0.17,1.63,0.25,2.52,0.25c1.26,0,2.45-0.07,3.57-0.21c1.12-0.14,2.1-0.33,2.94-0.56v-8.06c-0.79-0.37-1.74-0.68-2.84-0.91
		C407.84,86.6,406.71,86.48,405.54,86.48z"/>
	<path class="st0" d="M442.89,95.87c0.05,0,0.12,0,0.21,0c1.31,0,2.43-0.34,3.36-1.02c0.93-0.68,1.45-1.69,1.54-3.05
		c0-0.65-0.17-1.2-0.53-1.65c-0.35-0.44-0.81-0.82-1.37-1.12s-1.18-0.55-1.86-0.74c-0.68-0.19-1.32-0.35-1.93-0.49
		c-1.26-0.23-2.65-0.58-4.17-1.05c-1.52-0.47-2.92-1.12-4.2-1.96c-1.29-0.84-2.36-1.94-3.22-3.29s-1.3-3.06-1.3-5.12
		c0-2.01,0.42-3.71,1.26-5.12s1.9-2.55,3.19-3.43c1.28-0.89,2.73-1.53,4.34-1.93c1.61-0.4,3.19-0.6,4.73-0.6
		c1.96,0,3.98,0.42,6.06,1.26c2.08,0.84,4,2.15,5.78,3.92l-4.62,5.04c-1.03-1.03-2.28-1.8-3.75-2.31c-1.47-0.51-2.88-0.77-4.24-0.77
		c-1.36,0-2.52,0.27-3.5,0.81c-0.98,0.54-1.52,1.37-1.61,2.49c-0.09,0.79,0.06,1.48,0.46,2.07c0.4,0.58,0.92,1.06,1.58,1.44
		s1.39,0.68,2.21,0.91c0.82,0.23,1.6,0.42,2.35,0.56c1.45,0.23,2.88,0.57,4.31,1.02c1.42,0.44,2.7,1.09,3.82,1.93
		s2.04,1.9,2.77,3.19c0.72,1.29,1.09,2.88,1.09,4.8c0,1.92-0.35,3.59-1.05,5.01c-0.7,1.43-1.64,2.6-2.8,3.54
		c-1.17,0.93-2.52,1.65-4.06,2.14c-1.54,0.49-3.13,0.74-4.76,0.74c-1.45,0-2.89-0.17-4.31-0.53c-1.43-0.35-2.78-0.89-4.06-1.61
		c-1.29-0.72-2.45-1.63-3.5-2.73s-1.9-2.37-2.56-3.82l5.75-3.71c0.98,1.73,2.31,3.04,3.99,3.92
		C439.85,95.45,441.39,95.87,442.89,95.87z"/>
	<path class="st0" d="M477.57,95.87c0.05,0,0.12,0,0.21,0c1.31,0,2.43-0.34,3.36-1.02c0.93-0.68,1.45-1.69,1.54-3.05
		c0-0.65-0.17-1.2-0.53-1.65c-0.35-0.44-0.81-0.82-1.37-1.12s-1.18-0.55-1.86-0.74c-0.68-0.19-1.32-0.35-1.93-0.49
		c-1.26-0.23-2.65-0.58-4.17-1.05c-1.52-0.47-2.92-1.12-4.2-1.96c-1.29-0.84-2.36-1.94-3.22-3.29s-1.3-3.06-1.3-5.12
		c0-2.01,0.42-3.71,1.26-5.12s1.9-2.55,3.19-3.43c1.28-0.89,2.73-1.53,4.34-1.93c1.61-0.4,3.19-0.6,4.73-0.6
		c1.96,0,3.98,0.42,6.06,1.26c2.08,0.84,4,2.15,5.78,3.92l-4.62,5.04c-1.03-1.03-2.28-1.8-3.75-2.31c-1.47-0.51-2.88-0.77-4.24-0.77
		c-1.36,0-2.52,0.27-3.5,0.81c-0.98,0.54-1.52,1.37-1.61,2.49c-0.09,0.79,0.06,1.48,0.46,2.07c0.4,0.58,0.92,1.06,1.58,1.44
		s1.39,0.68,2.21,0.91c0.82,0.23,1.6,0.42,2.35,0.56c1.45,0.23,2.88,0.57,4.31,1.02c1.42,0.44,2.7,1.09,3.82,1.93
		s2.04,1.9,2.77,3.19c0.72,1.29,1.09,2.88,1.09,4.8c0,1.92-0.35,3.59-1.05,5.01c-0.7,1.43-1.64,2.6-2.8,3.54
		c-1.17,0.93-2.52,1.65-4.06,2.14c-1.54,0.49-3.13,0.74-4.76,0.74c-1.45,0-2.89-0.17-4.31-0.53c-1.43-0.35-2.78-0.89-4.06-1.61
		c-1.29-0.72-2.45-1.63-3.5-2.73s-1.9-2.37-2.56-3.82l5.75-3.71c0.98,1.73,2.31,3.04,3.99,3.92
		C474.54,95.45,476.08,95.87,477.57,95.87z"/>
</g>
<linearGradient id="SVGID_1_" gradientUnits="userSpaceOnUse" x1="101.3011" y1="136.2101" x2="60.5322" y2="70.9662">
	<stop  offset="5.586592e-03" style="stop-color:#45FF97"/>
	<stop  offset="1" style="stop-color:#48FFE2"/>
</linearGradient>
<path class="st1" d="M75.89,134.03c33.06,0,59.81-26.75,59.81-59.81c0-15.35-5.78-29.34-15.27-39.93
	c-6.69,1.36-10.89,9.19-15.73,26.15c-4.47,15.64-10.71,15.74-18.88,14.38c-0.42,0.34-0.79,0.64-1.09,0.87
	c-5.31,4.15-5.41,7.05-5.41,12.06c0,1.83-0.96,3.96-5.69,3.96c-3.96,0-5.31-1.45-5.31-6.47c0-5.43,1.58-8.99,3.45-11.48
	c-15.3,3.23-10.96,28.68-30.19,27.76c-13.42-0.64-21.22,10.35-25.49,20.19v12.32H75.89z M73.72,98.37c4.05,0,7.43,3.38,7.43,7.43
	c0,3.96-3.28,7.43-7.43,7.43s-7.34-3.47-7.34-7.43C66.38,101.75,69.66,98.37,73.72,98.37z"/>
<path class="st0" d="M73.72,113.24c4.15,0,7.43-3.47,7.43-7.43c0-4.05-3.38-7.43-7.43-7.43c-4.05,0-7.34,3.38-7.34,7.43
	C66.38,109.76,69.57,113.24,73.72,113.24z"/>
<path class="st0" d="M95.53,58.03c0-9.07-8.2-15.93-20.56-15.93c-13.03,0-19.01,7.72-19.01,12.93c0,3.76,3.18,5.5,5.79,5.5
	c5.21,0,3.09-7.43,12.93-7.43c4.83,0,8.69,2.12,8.69,6.56c0,5.21-5.41,8.2-8.59,10.91c-0.97,0.83-2.03,1.87-3.02,3.19
	c1.44-0.3,3.05-0.43,4.88-0.29c3.29,0.24,6.35,0.88,9.17,1.35C89.09,72.13,95.53,66.07,95.53,58.03z"/>
<path class="st0" d="M71.76,73.76c-1.87,2.5-3.45,6.05-3.45,11.48c0,5.02,1.35,6.47,5.31,6.47c4.73,0,5.69-2.12,5.69-3.96
	c0-5.02,0.1-7.91,5.41-12.06c0.3-0.23,0.67-0.53,1.09-0.87c-2.82-0.47-5.88-1.11-9.17-1.35C74.81,73.34,73.2,73.46,71.76,73.76z"/>
<path class="st0" d="M75.89,3.33C36.71,3.33,5,35.04,5,74.22v65.35c0,3.06,2.48,5.54,5.54,5.54h65.35
	c39.18,0,70.89-31.7,70.89-70.89C146.77,35.04,115.07,3.33,75.89,3.33z M16.08,74.22c0-33.06,26.75-59.81,59.81-59.81
	c17.7,0,33.59,7.68,44.54,19.88c9.49,10.58,15.27,24.57,15.27,39.93c0,33.06-26.75,59.81-59.81,59.81H16.08v-12.32V74.22z"/>
</svg>
